<svg width="119" height="140" viewBox="0 0 119 140" fill="none" xmlns="http://www.w3.org/2000/svg">
  <path fill-rule="evenodd" clip-rule="evenodd" d="M77.0614 33.75H53.0614V45H77.0614V33.75ZM117.061 45V40C117.061 37.7103 116.42 35.5703 115.307 33.75H94.8155C93.7027 35.5703 93.0614 37.7103 93.0614 40V45H117.061ZM37.0614 45V40C37.0614 37.7103 36.4201 35.5703 35.3073 33.75H14.8155C13.7027 35.5703 13.0614 37.7103 13.0614 40V45H37.0614Z" fill="white" />
  <path fill-rule="evenodd" clip-rule="evenodd" d="M77.0614 67.5H53.0614V78.75H77.0614V67.5ZM117.061 78.75V67.5H93.0614V78.75H117.061ZM37.0614 78.75V67.5H13.0614V78.75H37.0614Z" fill="white" />
  <path fill-rule="evenodd" clip-rule="evenodd" d="M77.0614 101.25H53.0614V112.5H77.0614V101.25ZM94.8154 101.25H115.307C113.199 104.698 109.399 107 105.061 107C100.724 107 96.9235 104.698 94.8154 101.25ZM14.8154 101.25C16.9235 104.698 20.7237 107 25.0614 107C29.399 107 33.1992 104.698 35.3073 101.25H14.8154Z" fill="white" />
  <path fill-rule="evenodd" clip-rule="evenodd" d="M52.4041 12C52.4041 5.37258 57.7766 0 64.4041 0C71.0315 0 76.4041 5.37258 76.4041 12V33.75H52.4041V12ZM52.4041 45V67.5H76.4041V45H52.4041ZM52.4041 123V78.75H76.4041V101.25H53.9874V112.5H76.4041V123C76.4041 129.627 71.0315 135 64.4041 135C57.7766 135 52.4041 129.627 52.4041 123ZM14.1581 33.75C16.2662 30.3015 20.0664 28 24.4041 28C28.7417 28 32.5419 30.3015 34.65 33.75H14.1581ZM12.4041 45V67.5H36.4041V45H12.4041ZM12.4041 95V78.75H36.4041V95C36.4041 97.2897 35.7628 99.4297 34.65 101.25H15.7415C17.7203 104.487 21.19 106.713 25.1957 106.974C24.934 106.991 24.6701 107 24.4041 107C17.7766 107 12.4041 101.627 12.4041 95ZM92.4041 45V67.5H116.404V45H92.4041ZM92.4041 95V78.75H116.404V95C116.404 97.2897 115.763 99.4297 114.65 101.25H95.7415C97.7203 104.487 101.19 106.713 105.196 106.974C104.934 106.991 104.67 107 104.404 107C97.7766 107 92.4041 101.627 92.4041 95ZM114.65 33.75C112.542 30.3015 108.742 28 104.404 28C100.055 28 96.246 30.3138 94.1413 33.7776L94.1581 33.75H114.65Z" fill="white" />
  <path fill-rule="evenodd" clip-rule="evenodd" d="M67 29H43V34H67V29ZM107 34V31.7778C107 30.7601 106.359 29.809 105.246 29H84.7541C83.6413 29.809 83 30.7601 83 31.7778V34H107ZM27 34V31.7778C27 30.7601 26.3587 29.809 25.2459 29H4.75408C3.6413 29.809 3 30.7601 3 31.7778V34H27Z" fill="white" />
  <path fill-rule="evenodd" clip-rule="evenodd" d="M79 67H55V73H79V67ZM119 73V67H95V73H119ZM39 73V67H15V73H39Z" fill="white" />
  <path fill-rule="evenodd" clip-rule="evenodd" d="M75.6572 101.25H51.6572V112.5H75.6572V101.25ZM93.4113 101.25H113.903C111.795 104.698 107.995 107 103.657 107C99.3195 107 95.5193 104.698 93.4113 101.25ZM13.4113 101.25C15.5193 104.698 19.3195 107 23.6572 107C27.9949 107 31.795 104.698 33.9031 101.25H13.4113Z" fill="white" />
  <path fill-rule="evenodd" clip-rule="evenodd" d="M64 34H40V45.25H64V34ZM104 45.25V40.25C104 37.9603 103.359 35.8203 102.246 34H81.7541C80.6413 35.8203 80 37.9603 80 40.25V45.25H104ZM24 45.25V40.25C24 37.9603 23.3587 35.8203 22.2459 34H1.75408C0.641298 35.8203 0 37.9603 0 40.25V45.25H24Z" fill="white" style="mix-blend-mode:multiply" />
  <path fill-rule="evenodd" clip-rule="evenodd" d="M77.0614 101.25H53.0614V112.5H77.0614V101.25ZM94.8154 101.25H115.307C113.199 104.698 109.399 107 105.061 107C100.724 107 96.9235 104.698 94.8154 101.25ZM14.8154 101.25C16.9235 104.698 20.7237 107 25.0614 107C29.399 107 33.1992 104.698 35.3073 101.25H14.8154Z" fill="white" style="mix-blend-mode:multiply" />
  <path fill-rule="evenodd" clip-rule="evenodd" d="M67 34H43V45.25H67V34ZM84.7541 34H95V45.25H83V40.25C83 37.9603 83.6413 35.8203 84.7541 34ZM27 45.25V40.25C27 37.9603 26.3587 35.8203 25.2459 34H4.75408C3.6413 35.8203 3 37.9603 3 40.25V45.25H27Z" fill="white" style="mix-blend-mode:multiply" />
  <path fill-rule="evenodd" clip-rule="evenodd" d="M75.6572 101.25H51.6572V112.5H75.6572V101.25ZM93.4113 101.25H113.903C111.795 104.698 107.995 107 103.657 107C99.3195 107 95.5193 104.698 93.4113 101.25ZM13.4113 101.25C15.5193 104.698 19.3195 107 23.6572 107C27.9949 107 31.795 104.698 33.9031 101.25H13.4113Z" fill="white" style="mix-blend-mode:multiply" />
  <rect x="10" y="123" width="106" height="8" fill="black" />
  <rect x="104" y="83" width="14" height="8" fill="black" />
  <rect x="33" y="14" width="30" height="8" fill="black" />
  <rect x="28" y="65" width="30" height="8" fill="black" />
  <rect x="63" y="49" width="44" height="2" fill="black" />
</svg>